PathFileType	4	(X/Y/Z)	./resultDataOpenSim/trcMotMarkerGrf/sub10/qtm-05-03.trc
DataRate	CameraRate	NumFrames	NumMarkers	Units	OrigDataRate	OrigDataStartFrame	OrigNumFrames
250.000000	250.000000	6	24	m	250.000000	385	513
Frame#	Time	L.Toe.Tip			R.Toe.Tip			L.Ankle.Lat			R.Ankle.Lat			L.Ankle.Med			R.Ankle.Med			L.Heel			R.Heel			L.Knee.Lat			R.Knee.Lat			L.Knee.Med			R.Knee.Med			L.Thigh.Upper			R.Thigh.Upper			L.ASIS			R.ASIS			V.Sacral			L.Acromium			R.Acromium			C7			L.Elbow			R.Elbow			L.Wrist.Lat			R.Wrist.Lat
		X1	Y1	Z1	X2	Y2	Z2	X3	Y3	Z3	X4	Y4	Z4	X5	Y5	Z5	X6	Y6	Z6	X7	Y7	Z7	X8	Y8	Z8	X9	Y9	Z9	X10	Y10	Z10	X11	Y11	Z11	X12	Y12	Z12	X13	Y13	Z13	X14	Y14	Z14	X15	Y15	Z15	X16	Y16	Z16	X17	Y17	Z17	X18	Y18	Z18	X19	Y19	Z19	X20	Y20	Z20	X21	Y21	Z21	X22	Y22	Z22	X23	Y23	Z23	X24	Y24	Z24

385	1.536	0.63256734	0.10983387	-0.19659093	0.91537532	0.039272989	-0.078540043	0.60627037	0.24788456	-0.21406977	0.77732231	0.058327207	-0.031324579	0.64688897	0.24700367	-0.14137884	0.79273444	0.084313588	-0.1165768	0.5657281	0.28678612	-0.15400313	0.72113018	0.036998496	-0.073238343	0.90236295	0.46081319	-0.2996203	0.89420215	0.44255411	-0.0035355232	0.94897329	0.42566882	-0.18739911	0.88265252	0.45195068	-0.13210526	0.80125221	0.82452014	-0.30519909	0.87978124	0.86094655	0.068111012	0.87788916	0.93430196	-0.252152	0.93075875	0.94706175	-0.017999618	0.70776882	0.96610761	-0.097215888	0.87417197	1.4282583	-0.26030396	0.84400566	1.4109961	0.058365636	0.77806193	1.4456107	-0.10935131	0.8055345	1.1011067	-0.37053925	0.71542304	1.0749534	0.11065108	0.95461008	0.90564823	-0.34875817	0.89440517	0.92841613	0.20528523
386	1.54	0.64871393	0.10862871	-0.19873365	0.91540899	0.039281788	-0.078539966	0.61934789	0.24615473	-0.21453035	0.77736504	0.058644581	-0.031312592	0.66035732	0.24555106	-0.14214722	0.79287472	0.084709229	-0.11652681	0.57819302	0.2837425	-0.15387201	0.72114623	0.037349282	-0.073311526	0.91224915	0.46378625	-0.30050182	0.8942553	0.44299538	-0.0028884902	0.96000929	0.42892568	-0.18855067	0.88234694	0.45234256	-0.13162094	0.80783331	0.82653858	-0.30625318	0.88384685	0.86185268	0.067959393	0.88342722	0.93624444	-0.25243442	0.93546744	0.94821091	-0.018062656	0.71296918	0.96757109	-0.09801799	0.87812275	1.4298999	-0.26068175	0.84854667	1.4126207	0.058099427	0.78257847	1.4470123	-0.10950404	0.80692565	1.1033883	-0.3713203	0.72312391	1.0753114	0.11159065	0.95390748	0.90620654	-0.35116583	0.9049142	0.9316289	0.20527579
387	1.544	0.66508917	0.10729137	-0.20089715	0.91544565	0.039290489	-0.07853805	0.63251948	0.24416551	-0.21506386	0.77742915	0.058957393	-0.031325659	0.67401671	0.24386215	-0.14306223	0.79302994	0.085104977	-0.11649017	0.59074362	0.2804602	-0.15387543	0.7211214	0.037733296	-0.073370553	0.92202254	0.46665625	-0.30134871	0.89431025	0.44343337	-0.0022446393	0.97058078	0.432139	-0.18970232	0.88228673	0.45272872	-0.13107125	0.81431577	0.82849208	-0.30729198	0.8878266	0.8626876	0.067783166	0.8890604	0.93812536	-0.25267773	0.940146	0.94929554	-0.018114424	0.71824106	0.96887651	-0.098965749	0.8820833	1.4314489	-0.26105577	0.85309635	1.4141775	0.05783048	0.78709572	1.4483282	-0.10966308	0.80830947	1.1056544	-0.37214277	0.73096693	1.0755954	0.11250047	0.95321864	0.90674936	-0.35357869	0.9154255	0.93481069	0.20525963
388	1.548	0.68173301	0.10586742	-0.20306218	0.91548675	0.039298762	-0.078538069	0.64579068	0.24192223	-0.21567333	0.77750003	0.05927541	-0.03134781	0.68789738	0.24195653	-0.14409408	0.79321065	0.085500061	-0.11647058	0.60337591	0.27693878	-0.1540451	0.72103623	0.038132274	-0.073408652	0.93168593	0.46941999	-0.3021688	0.89436467	0.44387268	-0.0016041985	0.98066936	0.43529814	-0.19085031	0.88230199	0.45311153	-0.1305274	0.82069491	0.83038724	-0.3082914	0.89170515	0.86347017	0.067552272	0.89481563	0.93994027	-0.25284197	0.94479065	0.95030304	-0.018129373	0.72352606	0.97003273	-0.10002423	0.88605633	1.432904	-0.2614252	0.85763299	1.4156729	0.057553131	0.79161368	1.4495546	-0.10982782	0.80971917	1.1078659	-0.37287439	0.73885842	1.0758476	0.11339533	0.95253441	0.90727905	-0.3559932	0.92592895	0.93795275	0.20523221
389	1.552	0.69858663	0.10439018	-0.2051906	0.91553269	0.039306877	-0.078542584	0.659166	0.23943714	-0.21635467	0.77756621	0.059604701	-0.031373251	0.70198398	0.23987046	-0.14515821	0.79341232	0.085909029	-0.11646419	0.61609999	0.27317453	-0.15440988	0.72092353	0.038533878	-0.073450199	0.94125238	0.47208008	-0.30296113	0.89441901	0.44431488	-0.00096689075	0.99037537	0.43840117	-0.19199444	0.88234318	0.45348843	-0.12999702	0.82703681	0.83221975	-0.30922821	0.89542667	0.864179	0.067274822	0.90060834	0.94167754	-0.25294377	0.94939797	0.95121786	-0.018099762	0.72872328	0.97111432	-0.10104891	0.89003963	1.4342686	-0.26179533	0.86212225	1.4171073	0.057251551	0.7961331	1.4506951	-0.10999789	0.81116584	1.1099687	-0.37345625	0.74675443	1.076092	0.11427474	0.95187436	0.90779958	-0.358377	0.93641565	0.94104988	0.2051926
390	1.556	0.71553211	0.10287362	-0.20723297	0.9155824	0.039312727	-0.078552509	0.6726523	0.23672237	-0.21710484	0.77762596	0.059942126	-0.031410536	0.7162105	0.23763667	-0.14619941	0.79361425	0.086348611	-0.11645769	0.6289198	0.2691657	-0.15498115	0.72089662	0.038957244	-0.073544448	0.95073462	0.47464149	-0.30372442	0.89447281	0.44475702	-0.00033677548	0.99994495	0.44143268	-0.19312358	0.88245114	0.45386014	-0.12945486	0.83345003	0.83397325	-0.31005118	0.89892502	0.8647525	0.067001067	0.90640116	0.94332786	-0.25302033	0.95398249	0.95202844	-0.018046839	0.73380665	0.97219223	-0.10188624	0.89402949	1.4355471	-0.26217407	0.86655837	1.4184768	0.056922814	0.80065246	1.4517544	-0.11017472	0.81264466	1.1119666	-0.37393064	0.75467597	1.0763192	0.11513594	0.95125945	0.9083055	-0.36070858	0.94688442	0.94410477	0.20514097
